name C:\Users\u0101727\Documents\MyRepositories\upper-imu-dc\Results\main_tracking\Case_45\FLX01_linearAccelerations_bodyFrame.mot
datacolumns 4
datarows 105
range 3.50600000 4.13000000
endheader 
time	radius_imu_x	radius_imu_y	radius_imu_z	
          3.50600000	         -0.58636943	         -9.46286182	          2.30951741	
          3.51200000	         -0.61754700	         -9.46215894	          2.30377680	
          3.51800000	         -0.64650533	         -9.46109900	          2.30105056	
          3.52400000	         -0.67307141	         -9.45970730	          2.30144212	
          3.53000000	         -0.69712395	         -9.45801532	          2.30499268	
          3.53600000	         -0.71858072	         -9.45606028	          2.31167843	
          3.54200000	         -0.73741717	         -9.45388756	          2.32139937	
          3.54800000	         -0.75363885	         -9.45154855	          2.33398503	
          3.55400000	         -0.76728428	         -9.44910109	          2.34919315	
          3.56000000	         -0.77841496	         -9.44660768	          2.36671498	
          3.56600000	         -0.78710379	         -9.44413506	          2.38618234	
          3.57200000	         -0.79343487	         -9.44174777	          2.40717706	
          3.57800000	         -0.79749095	         -9.43950827	          2.42924423	
          3.58400000	         -0.79935185	         -9.43747132	          2.45190747	
          3.59000000	         -0.79908619	         -9.43567861	          2.47468503	
          3.59600000	         -0.79675754	         -9.43416370	          2.49710248	
          3.60200000	         -0.79240466	         -9.43293826	          2.51871300	
          3.60800000	         -0.78605625	         -9.43200555	          2.53910388	
          3.61400000	         -0.77772077	         -9.43135453	          2.55790946	
          3.62000000	         -0.76738590	         -9.43096383	          2.57481722	
          3.62600000	         -0.75503510	         -9.43080850	          2.58957281	
          3.63200000	         -0.74062711	         -9.43084650	          2.60198871	
          3.63800000	         -0.72411129	         -9.43103078	          2.61193393	
          3.64400000	         -0.70543016	         -9.43131007	          2.61933900	
          3.65000000	         -0.68452391	         -9.43163079	          2.62419205	
          3.65600000	         -0.66133151	         -9.43193642	          2.62653404	
          3.66200000	         -0.63579961	         -9.43217458	          2.62645562	
          3.66800000	         -0.60788406	         -9.43229255	          2.62408590	
          3.67400000	         -0.57755903	         -9.43224031	          2.61958393	
          3.68000000	         -0.54482540	         -9.43197086	          2.61312838	
          3.68600000	         -0.50971220	         -9.43143773	          2.60490901	
          3.69200000	         -0.47229391	         -9.43060150	          2.59511721	
          3.69800000	         -0.43268483	         -9.42942467	          2.58395123	
          3.70400000	         -0.39103502	         -9.42787515	          2.57159417	
          3.71000000	         -0.34753643	         -9.42593098	          2.55823233	
          3.71600000	         -0.30240843	         -9.42357311	          2.54405478	
          3.72200000	         -0.25590216	         -9.42079893	          2.52925040	
          3.72800000	         -0.20828570	         -9.41760893	          2.51401678	
          3.73400000	         -0.15984257	         -9.41401048	          2.49855871	
          3.74000000	         -0.11086954	         -9.41001110	          2.48308898	
          3.74600000	         -0.06166313	         -9.40562041	          2.46782968	
          3.75200000	         -0.01252995	         -9.40084197	          2.45300461	
          3.75800000	          0.03623032	         -9.39567103	          2.43884281	
          3.76400000	          0.08432001	         -9.39009359	          2.42557196	
          3.77000000	          0.13144888	         -9.38408144	          2.41341419	
          3.77600000	          0.17733594	         -9.37759943	          2.40258501	
          3.78200000	          0.22171634	         -9.37059018	          2.39328344	
          3.78800000	          0.26433911	         -9.36299193	          2.38569657	
          3.79400000	          0.30497251	         -9.35473445	          2.37999595	
          3.80000000	          0.34340730	         -9.34574976	          2.37633818	
          3.80600000	          0.37945819	         -9.33597327	          2.37486662	
          3.81200000	          0.41297482	         -9.32536007	          2.37570686	
          3.81800000	          0.44383448	         -9.31387924	          2.37896716	
          3.82400000	          0.47194411	         -9.30152230	          2.38473227	
          3.83000000	          0.49723627	         -9.28830325	          2.39305845	
          3.83600000	          0.51967013	         -9.27425236	          2.40396420	
          3.84200000	          0.53922820	         -9.25942200	          2.41742759	
          3.84800000	          0.55591566	         -9.24387549	          2.43337856	
          3.85400000	          0.56975614	         -9.22768745	          2.45169897	
          3.86000000	          0.58079265	         -9.21093754	          2.47222357	
          3.86600000	          0.58908169	         -9.19371336	          2.49473532	
          3.87200000	          0.59469989	         -9.17609610	          2.51897769	
          3.87800000	          0.59772981	         -9.15816904	          2.54464949	
          3.88400000	          0.59825857	         -9.14000916	          2.57141583	
          3.89000000	          0.59637572	         -9.12168256	          2.59891410	
          3.89600000	          0.59216957	         -9.10325439	          2.62675819	
          3.90200000	          0.58573790	         -9.08476656	          2.65455241	
          3.90800000	          0.57717945	         -9.06625911	          2.68189392	
          3.91400000	          0.56659560	         -9.04776040	          2.70838360	
          3.92000000	          0.55408525	         -9.02928583	          2.73363167	
          3.92600000	          0.53973851	         -9.01084757	          2.75726321	
          3.93200000	          0.52363156	         -8.99242720	          2.77892468	
          3.93800000	          0.50581528	         -8.97399807	          2.79828880	
          3.94400000	          0.48630849	         -8.95551200	          2.81506192	
          3.95000000	          0.46509786	         -8.93690314	          2.82899186	
          3.95600000	          0.44213076	         -8.91809942	          2.83987632	
          3.96200000	          0.41733332	         -8.89901583	          2.84757303	
          3.96800000	          0.39059630	         -8.87957135	          2.85200640	
          3.97400000	          0.36178396	         -8.85968890	          2.85317455	
          3.98000000	          0.33073528	         -8.83930218	          2.85115406	
          3.98600000	          0.29725955	         -8.81835336	          2.84610201	
          3.99200000	          0.26115128	         -8.79680339	          2.83825737	
          3.99800000	          0.22217991	         -8.77462373	          2.82793538	
          4.00400000	          0.18009857	         -8.75180077	          2.81552076	
          4.01000000	          0.13464456	         -8.72833429	          2.80145802	
          4.01600000	          0.08555263	         -8.70423603	          2.78623775	
          4.02200000	          0.03255108	         -8.67952951	          2.77038329	
          4.02800000	         -0.02462514	         -8.65424767	          2.75443339	
          4.03400000	         -0.08623763	         -8.62843101	          2.73892617	
          4.04000000	         -0.15254314	         -8.60212095	          2.72438394	
          4.04600000	         -0.22377812	         -8.57536820	          2.71129839	
          4.05200000	         -0.30016908	         -8.54820900	          2.70011954	
          4.05800000	         -0.38191133	         -8.52068358	          2.69125013	
          4.06400000	         -0.46917189	         -8.49282417	          2.68504378	
          4.07000000	         -0.56207294	         -8.46465121	          2.68180496	
          4.07600000	         -0.66068721	         -8.43618717	          2.68179190	
          4.08200000	         -0.76500385	         -8.40742647	          2.68521453	
          4.08800000	         -0.87493744	         -8.37836366	          2.69223945	
          4.09400000	         -0.99030956	         -8.34897768	          2.70298778	
          4.10000000	         -1.11083455	         -8.31923697	          2.71752932	
          4.10600000	         -1.23614022	         -8.28911036	          2.73587838	
          4.11200000	         -1.36571572	         -8.25853508	          2.75798079	
          4.11800000	         -1.49896863	         -8.22746867	          2.78371182	
          4.12400000	         -1.63520961	         -8.19584621	          2.81287733	
          4.13000000	         -1.77367123	         -8.16362156	          2.84521146	
